<?xml version="1.0" encoding="utf-8"?>
<svg viewBox="103.0096 74.5234 280.4662 378.5679" xmlns="http://www.w3.org/2000/svg">
  <path d="M 224.406 76.84 C 223.766 76.55 226.686 75.7 229.246 75.37 C 233.086 74.84 236.966 74.22 240.856 74.69 C 244.426 75.62 247.996 76.95 250.836 79.36 C 253.666 81.78 255.416 85.13 257.226 88.32 C 258.736 92.15 264.416 90.57 266.396 93.86 C 263.536 93.74 260.696 93.31 257.866 92.9 C 258.786 94.36 259.326 96.2 260.706 97.3 C 263.306 97.92 266.006 97.23 268.636 97.04 C 267.696 96.42 266.756 95.81 265.816 95.2 C 266.256 94.81 265.863 93.082 266.766 93.351 C 258.638 91.143 267.114 92.078 267.364 91.918 C 268.824 93.438 271.096 96.41 272.426 98.04 C 268.826 99.59 264.846 99.58 261.036 100.15 L 259.686 100.32 C 258.336 100.46 256.986 100.58 255.636 100.7 C 255.606 100.01 253.166 106.84 252.026 110.11 C 252.066 107.4 251.916 104.68 251.446 102.01 L 251.306 100.92 C 251.266 100.56 249.614 104.539 249.574 104.189 C 246.036 104.028 251.122 94.566 248.137 114.826 C 248.097 115.556 246.116 112.92 246.086 113.65 C 245.366 112 244.646 110.35 243.936 108.7 C 243.706 109.14 243.486 109.58 243.276 110.02 C 241.736 112.72 240.736 115.76 238.766 118.18 C 234.246 121.42 228.376 120.02 223.186 120.3 C 222.376 119.72 221.576 119.13 220.796 118.53 C 218.706 115.21 216.646 111.76 215.106 108.13 C 214.566 101.87 211.626 95.58 213.636 89.31 C 214.416 86.41 216.796 84.43 218.826 82.38 C 218.556 82.16 218.026 81.73 217.756 81.52 L 217.696 81.47 C 219.976 79.99 222.196 78.41 224.406 76.84 Z" fill="#000000" opacity="1.00" stroke="#070836" stroke-width="0.25" transform="matrix(1, 0, 0, 1, -7.105427357601002e-15, 0)"/>
  <path d="M 217.756 81.52 C 218.026 81.73 218.556 82.16 218.826 82.38 C 216.796 84.43 214.416 86.41 213.636 89.31 C 211.626 95.58 214.566 101.87 215.106 108.13 C 212.196 102.87 210.816 96.63 211.666 90.66 C 212.256 86.86 214.966 83.93 217.756 81.52 Z" fill="#040006" opacity="1.00" stroke="#040006" stroke-width="0.25" transform="matrix(1, 0, 0, 1, -7.105427357601002e-15, 0)"/>
  <path d="M 257.866 92.9 C 260.696 93.31 260.299 93.506 263.159 93.626 L 266.207 93.74 C 265.767 94.14 268.011 94.596 267.571 94.986 C 268.511 95.596 267.696 96.42 268.636 97.04 C 266.006 97.23 263.306 97.92 260.706 97.3 C 259.326 96.2 258.786 94.36 257.866 92.9 Z" fill="#ec7252" opacity="1.00" stroke="#ec7252" stroke-width="0.25" style="transform-origin: 263.251px 95.227px;" transform="matrix(0.999696016312, -0.024639004841, 0.024639004841, 0.999696016312, -8.2459e-8, -4.50017e-7)"/>
  <path d="M 252.026 110.11 C 253.166 106.84 255.606 100.01 255.636 100.7 C 256.986 100.58 258.336 100.46 259.686 100.32 C 258.766 104.58 256.766 108.53 255.766 112.75 C 256.246 115.35 257.446 117.74 258.326 120.22 C 255.966 123.97 254.726 128.28 252.436 132.06 C 248.446 128.69 246.946 123.06 248.446 118.1 C 250.136 112.8 248.166 106.87 251.446 102.01 C 251.916 104.68 252.066 107.4 252.026 110.11 Z" fill="#f5cda8" opacity="1.00" stroke="#f5cda8" stroke-width="0.25" transform="matrix(1, 0, 0, 1, -7.105427357601002e-15, 0)"/>
  <path d="M 259.686 100.32 L 261.036 100.15 C 261.656 104.79 259.226 108.86 257.406 112.91 C 258.496 115.84 260.536 118.5 260.206 121.86 C 259.416 122.4 258.636 122.95 257.856 123.5 C 257.206 125.97 256.586 128.44 255.666 130.83 C 254.906 131.43 254.176 132.07 253.466 132.73 C 254.616 134.93 256.686 136.45 258.276 138.3 L 257.266 138.22 C 256.176 138.14 255.086 138.04 253.996 137.92 C 250.846 134.71 248.206 130.65 243.766 129.08 C 236.646 126.31 228.896 125.7 221.336 125.28 C 214.606 125.28 207.096 124.54 201.386 128.84 C 195.836 132.6 194.646 139.85 194.616 146.08 C 197.236 145.8 199.856 145.55 202.476 145.3 C 203.846 143.76 223.406 151.59 222.876 154.77 C 222.786 155.35 222.696 155.93 222.616 156.51 C 222.576 156.22 222.476 155.64 222.426 155.35 C 220.816 156.07 219.246 156.91 217.536 157.37 C 213.216 155.4 207.854 151.008 204.264 148.038 C 204.696 147.152 191.976 157.14 191.376 157.69 C 198.556 158.14 205.896 156.56 212.936 158.5 C 198.606 159.46 184.236 158.92 169.886 159.25 C 166.616 165.5 163.796 171.99 161.586 178.69 C 163.826 179.09 167.246 179.72 167.056 182.7 C 166.646 190.95 165.986 199.21 166.106 207.49 C 167.271 206.037 158.451 208.731 154.711 208.811 C 155.081 204.061 155.796 197.57 156.006 192.81 C 156.306 191.44 156.646 190.07 156.736 188.67 C 157.206 184.44 158.576 180.39 159.546 176.26 C 159.576 176.17 159.616 175.99 159.636 175.9 C 160.936 172.62 162.136 169.29 163.406 166 C 163.506 165.83 163.706 165.5 163.806 165.33 C 165.076 163.23 166.216 161.06 167.286 158.85 C 163.696 159.58 160.076 161 158.616 164.69 C 158.376 165.06 158.156 165.44 157.966 165.83 C 155.016 172.06 154.116 179 153.176 185.76 C 152.466 194.1 151.586 202.44 151.726 210.83 C 152.696 211.59 153.666 212.36 154.646 213.13 C 154.686 211.61 154.736 210.09 154.816 208.57 C 157.956 208.53 160.986 206.454 164.096 205.944 L 165.722 204.657 C 165.762 206.387 166.126 211.25 166.176 212.99 C 173.676 213.17 181.166 213.26 188.666 213.31 C 188.766 214.27 188.866 215.23 188.976 216.19 C 181.526 216.41 174.066 216.21 166.616 216.03 C 166.886 218.85 166.896 221.71 165.926 224.41 C 165.076 224.32 163.386 224.15 162.546 224.07 L 163.616 222.62 C 165.496 218.78 163.876 214.46 163.446 210.47 C 161.616 210.47 159.796 210.47 157.966 210.47 C 157.786 216.14 158.006 222.02 160.496 227.24 C 158.556 227.21 156.626 227.4 154.786 228.02 C 156.926 228.34 159.086 228.46 161.256 228.5 C 161.616 229.08 162.346 230.25 162.706 230.84 C 160.066 230.88 157.416 230.92 154.806 231.32 C 157.376 233.21 160.686 232.79 163.656 232.38 C 164.226 230.68 164.706 228.95 165.186 227.22 L 165.556 228.01 C 165.796 228.55 166.266 229.62 166.506 230.15 C 166.926 232.34 166.126 234.4 164.956 236.2 C 165.216 241.82 166.416 247.4 165.936 253.05 C 164.056 253.54 162.176 254.04 160.296 254.52 C 161.286 258.18 162.306 262.19 165.396 264.69 C 170.956 269.21 178.266 271.01 185.326 271.09 C 195.636 271.21 205.946 271.13 216.266 271.19 C 222.056 271.08 228.006 271.45 233.626 269.72 C 234.936 269.13 236.146 268.36 237.396 267.65 C 232.396 268.15 227.326 268.16 222.376 267.24 C 219.626 266.3 216.786 264.62 215.956 261.64 C 214.516 255.44 215.186 249.03 215.126 242.73 C 215.306 233.47 214.856 224.21 214.906 214.95 C 220.698 214.361 221.113 214.966 221.962 214.709 C 223.726 214.507 226.784 213.959 227.502 213.811 C 228.555 213.48 231.746 212.891 232.326 212.09 C 232.496 212.85 232.826 214.69 232.996 215.44 C 228.716 216.35 224.446 217.27 220.206 218.3 C 218.786 218.47 217.766 219.39 216.846 220.38 C 224.766 219.71 232.496 217.58 240.296 216.03 C 240.196 215.54 239.996 214.54 239.896 214.04 C 239.816 213.68 239.676 212.95 239.596 212.58 C 240.566 211.9 241.526 211.21 242.506 210.53 C 242.386 213.11 242.206 215.7 242.046 218.28 C 234.156 220.21 226.176 221.74 218.166 223.03 C 218.126 232.95 218.216 242.87 218.076 252.79 C 218.136 255.79 217.976 259.04 219.456 261.77 C 220.696 263.99 223.416 264.39 225.666 264.84 C 230.146 265.12 234.846 265.9 239.216 264.54 C 245.666 261.63 248.136 253.44 246.066 246.97 C 245.726 244.2 245.516 241.23 247.056 238.76 C 247.686 239.12 248.926 239.86 249.556 240.23 C 254.696 235.24 257.676 228.48 262.606 223.27 C 264.106 222.23 265.576 221.18 267.056 220.12 C 261.246 209.25 257.066 197.55 254.046 185.62 C 253.116 182.64 253.626 179.55 255.086 176.85 C 255.236 177.2 255.526 177.89 255.676 178.24 C 256.176 182.85 257.096 187.41 258.516 191.82 C 262.246 204.66 267.516 217.11 274.756 228.36 C 277.736 232.56 281.496 237.56 287.246 237.34 C 298.706 237.51 308.346 229.55 316.076 221.88 C 313.196 217.27 310.056 212.82 306.396 208.8 C 303.026 211.89 299.846 215.18 296.976 218.75 C 292.166 211.75 290.056 203.42 286.896 195.65 C 286.796 195.04 286.676 194.43 286.546 193.84 C 285.096 186.69 282.496 179.85 280.876 172.74 C 279.426 167.47 278.676 162 276.736 156.88 C 275.486 153.64 272.756 151.33 270.006 149.37 C 270.286 148.76 270.856 147.56 271.136 146.96 C 276.646 149.88 279.576 155.9 280.946 161.75 C 281.136 163.57 283.166 161.68 283.946 161.3 C 296.016 152.78 309.606 146.77 323.536 142.02 C 328.826 140.35 333.846 137.7 339.356 136.8 C 338.036 148.79 335.146 160.7 334.846 172.8 C 335.436 172.99 336.626 173.35 337.216 173.53 C 335.096 178.33 335.796 183.42 336.916 188.38 C 338.106 190.69 340.486 192.83 339.726 195.69 C 338.656 199.8 338.846 204.6 335.556 207.75 C 335.446 213.01 336.716 218.14 337.256 223.34 C 334.356 224.73 331.456 226.12 328.506 227.39 C 328.446 230.15 328.716 232.92 328.506 235.68 C 313.176 241.7 297.926 248.28 284.166 257.44 C 282.056 247.45 278.696 237.3 271.996 229.39 C 271.746 243.71 272.826 258.07 272.016 272.36 C 271.256 272.36 269.746 272.38 268.986 272.38 C 268.636 295.05 269.296 317.94 265.056 340.33 C 264.766 336.79 264.626 333.23 265.146 329.71 C 266.426 320.43 267.216 311.08 267.326 301.71 C 267.416 292.13 268.266 282.48 266.826 272.95 C 252.756 275.44 238.766 279.65 224.316 278.81 C 219.046 278.26 213.376 279.42 208.456 276.98 C 218.646 276.64 228.906 277.97 239.056 276.51 C 249.366 275.33 259.396 272.61 269.426 270.07 C 270.196 257.99 269.276 245.86 269.126 233.77 C 268.796 232.03 270.842 234.358 267.902 234.428 C 268.002 236.368 269.563 238.145 269.833 240.085 C 269.303 240.165 265.696 235.13 265.166 235.21 C 261.486 237.15 258.566 240.18 256.716 243.89 C 255.156 246.88 252.756 249.2 250.186 251.3 C 249.466 253.99 249.616 256.95 248.166 259.41 C 245.756 263.58 242.066 266.8 238.266 269.68 C 235.766 271.57 232.896 273.11 229.726 273.43 C 216.706 274.95 203.546 272.6 190.536 274.33 C 193.706 276.51 197.636 276.47 201.306 276.92 C 197.596 277.71 193.796 277.65 190.066 277.04 C 189.556 300.6 190.106 324.17 189.896 347.74 C 190.566 363.79 187.386 379.7 187.936 395.75 C 187.786 402.35 188.666 408.93 188.456 415.54 L 187.446 414.32 L 187.096 413.82 C 186.356 401.13 186.106 388.39 187.156 375.72 C 188.986 354.47 187.946 333.11 188.166 311.81 C 188.096 299.06 188.306 286.32 188.036 273.58 C 179.016 274.09 169.186 272.09 162.636 265.44 C 158.506 261.54 158.636 255.45 156.176 250.64 C 155.186 244.59 154.856 238.4 153.436 232.4 C 153.006 230.74 151.716 228.91 152.756 227.23 C 153.866 225.77 155.666 224.83 156.436 223.13 C 156.526 220.89 156.286 218.66 156.096 216.43 C 152.916 216.15 149.646 214.34 149.086 210.94 C 148.436 204.6 151.746 172.84 155.496 164.76 C 157.376 160.82 160.886 157.51 165.286 156.73 C 169.906 155.96 174.616 156.56 179.276 156.26 C 181.666 150.97 186.706 147.7 191.826 145.42 C 191.976 138.63 193.956 131.3 199.626 127.04 C 205.556 122.13 213.776 122.85 220.966 122.99 C 220.916 121.5 220.846 120.02 220.796 118.53 C 221.576 119.13 222.376 119.72 223.186 120.3 C 223.386 121.02 223.776 122.45 223.976 123.16 C 231.746 123.46 239.456 124.83 246.806 127.43 C 246.826 121.46 246.516 115.23 243.276 110.02 C 243.486 109.58 243.706 109.14 243.936 108.7 C 244.646 110.35 245.366 112 246.086 113.65 C 246.116 112.92 246.186 111.47 246.226 110.74 C 246.836 112.37 247.546 113.95 248.246 115.55 C 248.586 110.55 247.616 104.96 251.306 100.92 L 251.446 102.01 C 248.166 106.87 250.136 112.8 248.446 118.1 C 246.946 123.06 248.446 128.69 252.436 132.06 C 254.726 128.28 255.966 123.97 258.326 120.22 C 257.446 117.74 256.246 115.35 255.766 112.75 C 256.766 108.53 258.766 104.58 259.686 100.32 Z" fill="#0b000c" opacity="1.00" stroke="#0b000c" stroke-width="0.25" transform="matrix(1, 0, 0, 1, -7.105427357601002e-15, 0)"/>
  <path d="M 243.276 110.02 C 246.516 115.23 246.826 121.46 246.806 127.43 C 239.456 124.83 231.746 123.46 223.976 123.16 C 223.776 122.45 223.386 121.02 223.186 120.3 C 228.376 120.02 234.246 121.42 238.766 118.18 C 240.736 115.76 241.736 112.72 243.276 110.02 Z" fill="#f5cda8" opacity="1.00" stroke="#f5cda8" stroke-width="0.25" transform="matrix(1, 0, 0, 1, -7.105427357601002e-15, 0)"/>
  <path d="M 201.386 128.84 C 207.096 124.54 214.606 125.28 221.336 125.28 C 228.896 125.7 236.646 126.31 243.766 129.08 C 248.206 130.65 250.846 134.71 253.996 137.92 L 253.826 138.73 C 242.146 139.97 232.256 147.06 223.476 154.34 L 222.876 154.77 C 223.406 151.59 218.598 151.922 217.064 149.656 C 214.777 149.401 212.536 148.502 210.042 147.266 C 207.916 146.213 203.846 143.76 202.476 145.3 C 199.856 145.55 197.236 145.8 194.616 146.08 C 194.646 139.85 195.836 132.6 201.386 128.84 Z" opacity="1.00" stroke="#f3d149" stroke-width="0.25" style="fill: rgb(253, 192, 5);" transform="matrix(1, 0, 0, 1, -7.105427357601002e-15, 0)"/>
  <path d="M 208.026 127.29 C 216.006 125.61 224.176 127.01 232.216 127.51 C 239.286 128.42 247.496 130.82 250.916 137.71 C 241.446 139.08 233.616 144.84 225.826 149.95 C 225.726 146.12 224.546 141.92 220.556 140.5 C 215.866 139.53 210.976 140.07 206.216 140.1 C 202.946 140.01 201.966 144.94 198.336 144.04 C 194.746 144.79 196.516 140.61 197.006 138.68 C 198.276 133.19 202.486 128.61 208.026 127.29 Z" fill="#fdc005" opacity="1.00" stroke="#fdc005" stroke-width="0.25" transform="matrix(1, 0, 0, 1, -7.105427357601002e-15, 0)"/>
  <path d="M 253.996 137.92 C 255.086 138.04 256.176 138.14 257.266 138.22 C 262.936 138.36 269.246 141.22 271.136 146.96 C 270.856 147.56 270.286 148.76 270.006 149.37 L 269.616 149.2 C 267.116 148.13 264.526 147.25 261.856 146.75 C 254.366 145.17 246.886 148.39 240.386 151.83 C 237.596 153.34 234.786 154.92 232.416 157.05 C 233.246 157.68 234.096 158.3 234.966 158.89 C 237.086 157.65 239.236 156.43 241.386 155.22 C 241.366 156.01 241.326 157.57 241.316 158.36 C 239.996 159.33 238.716 160.33 237.346 161.23 C 236.746 161.48 235.546 161.97 234.936 162.22 C 232.406 159.37 228.646 158.42 224.956 159.07 C 223.446 159.13 221.936 159.17 220.426 159.24 C 216.936 159.24 214.646 162.33 212.086 164.26 C 211.906 164.41 211.556 164.73 211.386 164.89 C 210.816 164.57 209.686 163.94 209.116 163.63 C 210.776 162.04 212.346 160.38 213.886 158.68 L 212.936 158.5 C 205.896 156.56 198.556 158.14 191.376 157.69 C 191.976 157.14 191.929 155.148 192.519 154.588 C 192.809 154.298 194.026 155.15 194.316 154.87 C 196.256 151.62 199.645 149.916 201.415 148.786 C 202.075 149.326 203.477 147.649 204.137 148.199 C 203.607 149.019 206.596 147.41 206.086 148.24 C 209.676 151.21 213.216 155.4 217.536 157.37 C 219.246 156.91 220.816 156.07 222.426 155.35 C 222.476 155.64 222.576 156.22 222.616 156.51 C 222.696 155.93 222.786 155.35 222.876 154.77 L 223.476 154.34 C 224.126 154.51 225.446 154.85 226.106 155.02 C 228.096 155.57 230.426 156.21 232.116 154.59 C 241.986 147.41 254.526 141.62 266.886 145.32 C 263.546 139.89 256.576 141.59 251.256 141.53 C 252.006 141.05 252.736 140.54 253.456 140.01 C 253.546 139.69 253.736 139.05 253.826 138.73 L 253.996 137.92 Z" opacity="1.00" stroke="#06001b" stroke-width="0.25" style="" transform="matrix(1, 0, 0, 1, -7.105427357601002e-15, 0)"/>
  <path d="M 223.476 154.34 C 232.256 147.06 242.146 139.97 253.826 138.73 C 253.736 139.05 253.546 139.69 253.456 140.01 C 252.736 140.54 252.006 141.05 251.256 141.53 C 241.786 143.64 233.806 149.42 226.106 155.02 C 225.446 154.85 224.126 154.51 223.476 154.34 Z" fill="#040006" opacity="1.00" stroke="#040006" stroke-width="0.25" transform="matrix(1, 0, 0, 1, -7.105427357601002e-15, 0)"/>
  <path d="M 226.106 155.02 C 233.806 149.42 241.786 143.64 251.256 141.53 C 256.576 141.59 263.546 139.89 266.886 145.32 C 254.526 141.62 241.986 147.41 232.116 154.59 C 230.426 156.21 228.096 155.57 226.106 155.02 Z" opacity="1.00" stroke-width="0.25" style="fill: rgb(199, 78, 78); stroke: rgb(199, 78, 78);" transform="matrix(1, 0, 0, 1, -7.105427357601002e-15, 0)"/>
  <path d="M 304.086 152.53 C 313.546 148.5 323.096 144.67 332.946 141.69 C 338.315 138.919 335.665 149.287 334.196 157.17 C 332.816 168.53 332.106 181.35 323.746 190.08 C 323.936 188.9 324.156 187.74 324.406 186.58 C 323.346 183.97 322.186 181.39 320.836 178.91 C 321.086 177.75 321.336 176.59 321.586 175.43 C 324.546 176.09 327.366 173.53 326.756 170.47 C 325.716 169.05 324.376 167.87 323.116 166.66 C 323.266 165.89 323.566 164.37 323.716 163.61 C 322.976 163.54 321.516 163.39 320.786 163.32 C 320.796 160.98 320.796 158.63 320.736 156.29 C 320.086 156.31 318.776 156.35 318.126 156.37 C 318.876 156.22 320.376 155.9 321.126 155.74 C 320.306 153.63 318.606 154.19 317.056 155.06 C 316.056 154.28 315.036 153.42 313.756 154.16 C 312.466 156.35 311.586 158.76 310.426 161.01 C 309.786 160.2 309.146 159.41 308.496 158.62 C 305.386 159.31 301.916 158.7 299.136 160.51 C 296.306 162.2 293.126 163.27 290.546 165.35 C 292.946 167.48 292.976 170.75 293.226 173.7 C 293.746 174.73 295.656 175.64 294.656 176.93 C 293.206 179.12 292.956 181.69 292.926 184.26 C 290.886 184.4 288.846 184.53 286.806 184.67 C 285.426 178.35 283.226 172.21 282.306 165.79 C 288.026 162.24 293.326 158 299.346 154.94 C 300.926 154.14 302.506 153.34 304.086 152.53 Z" fill="#fcfefd" opacity="1.00" stroke="#fcfefd" stroke-width="0.25" transform="matrix(1, 0, 0, 1, -7.105427357601002e-15, 0)"/>
  <path d="M 240.386 151.83 C 246.886 148.39 254.366 145.17 261.856 146.75 C 254.626 148.41 247.746 151.43 241.386 155.22 C 239.236 156.43 237.086 157.65 234.966 158.89 C 234.096 158.3 233.246 157.68 232.416 157.05 C 234.786 154.92 237.596 153.34 240.386 151.83 Z" opacity="1.00" stroke-width="0.25" style="fill: rgb(199, 78, 78); stroke: rgb(199, 78, 78);" transform="matrix(1, 0, 0, 1, -7.105427357601002e-15, 0)"/>
  <path d="M 182.156 156.28 C 184.226 152.25 188.236 149.93 192.106 147.92 C 192.216 150.81 191.476 153.6 190.596 156.33 C 187.776 156.37 184.966 156.38 182.156 156.28 Z" fill="#c74e4e" opacity="1.00" stroke="#c74e4e" stroke-width="0.25" transform="matrix(1, 0, 0, 1, -7.105427357601002e-15, 0)"/>
  <path d="M 241.386 155.22 C 247.746 151.43 254.626 148.41 261.856 146.75 C 264.526 147.25 267.116 148.13 269.616 149.2 C 259.336 147.87 249.816 153.28 241.316 158.36 C 241.326 157.57 241.366 156.01 241.386 155.22 Z" opacity="1.00" stroke="#0d0000" stroke-width="0.25" fill="#0d0000" transform="matrix(1, 0, 0, 1, -7.105427357601002e-15, 0)"/>
  <path d="M 241.316 158.36 C 249.816 153.28 259.336 147.87 269.616 149.2 L 270.006 149.37 C 272.756 151.33 275.486 153.64 276.736 156.88 C 278.676 162 279.426 167.47 280.876 172.74 C 282.496 179.85 285.096 186.69 286.546 193.84 C 282.156 188.46 282.576 181.11 280.086 174.89 C 277.616 168.22 277.736 160.55 273.546 154.59 C 271.406 151.58 267.696 149.18 263.876 150.19 C 255.266 152.19 247.186 156.27 239.936 161.28 C 241.716 164.24 243.646 167.25 244.166 170.73 C 245.026 176.05 244.016 181.42 244.036 186.77 C 243.966 197.17 243.886 207.64 245.656 217.93 C 246.456 224.84 246.406 231.98 249.046 238.55 C 254.076 233.87 256.226 226.47 262.606 223.27 C 257.676 228.48 254.696 235.24 249.556 240.23 C 248.926 239.86 247.686 239.12 247.056 238.76 C 245.926 232.82 245.196 226.82 244.836 220.79 C 241.866 205.02 243.736 188.89 243.056 172.96 C 242.836 168.45 240.476 164.38 237.346 161.23 C 238.716 160.33 239.996 159.33 241.316 158.36 Z" fill="#eeca50" opacity="1.00" stroke="#eeca50" stroke-width="0.25" transform="matrix(1, 0, 0, 1, -7.105427357601002e-15, 0)"/>
  <path d="M 263.876 150.19 C 267.696 149.18 271.406 151.58 273.546 154.59 C 277.736 160.55 277.616 168.22 280.086 174.89 C 282.576 181.11 282.156 188.46 286.546 193.84 C 286.676 194.43 286.796 195.04 286.896 195.65 C 286.456 201.18 289.256 206.09 291.086 211.1 C 292.226 213.78 293.096 216.71 295.136 218.87 C 295.916 219.76 297.536 219.58 298.366 218.83 C 301.166 216.44 303.516 213.58 306.196 211.07 C 309.236 214.35 311.956 217.92 314.206 221.79 C 307.086 228.65 298.556 235.43 288.276 235.94 C 281.776 235.99 277.996 230.02 274.676 225.32 C 268.976 215.72 264.006 205.6 261.066 194.79 C 258.956 189.37 258.186 183.5 255.676 178.24 C 255.526 177.89 255.236 177.2 255.086 176.85 C 253.626 179.55 253.116 182.64 254.046 185.62 C 257.066 197.55 261.246 209.25 267.056 220.12 C 265.576 221.18 264.106 222.23 262.606 223.27 C 256.226 226.47 254.076 233.87 249.046 238.55 C 246.406 231.98 246.456 224.84 245.656 217.93 C 243.886 207.64 243.966 197.17 244.036 186.77 C 244.016 181.42 245.026 176.05 244.166 170.73 C 243.646 167.25 241.716 164.24 239.936 161.28 C 247.186 156.27 255.266 152.19 263.876 150.19 Z" fill="#fcc105" opacity="1.00" stroke="#fcc105" stroke-width="0.25" transform="matrix(1, 0, 0, 1, -7.105427357601002e-15, 0)"/>
  <path d="M 185.516 154.51 C 186.826 152.98 188.196 151.45 190.116 150.68 C 189.796 151.94 189.466 153.2 189.136 154.46 C 187.926 154.47 186.716 154.49 185.516 154.51 Z" fill="#c74e4e" opacity="1.00" stroke="#c74e4e" stroke-width="0.25" transform="matrix(1, 0, 0, 1, -7.105427357601002e-15, 0)"/>
  <path d="M 197.376 156.13 C 198.246 153.89 199.626 151.33 202.356 151.15 C 205.416 150.51 207.156 153.55 209.076 155.31 C 205.216 156.02 201.296 156.24 197.376 156.13 Z" fill="#fcc105" opacity="1.00" stroke="#fcc105" stroke-width="0.25" transform="matrix(1, 0, 0, 1, -7.105427357601002e-15, 0)"/>
  <path d="M 314.376 158.36 C 315.856 158.15 317.346 158.09 318.846 158.22 C 318.646 159.7 318.536 161.2 318.506 162.7 C 320.326 166.04 322.606 169.11 325.156 171.93 C 323.056 172.75 320.996 173.67 318.986 174.68 C 318.926 176.72 318.866 178.76 318.836 180.81 C 320.336 182.61 321.316 184.74 322.096 186.95 C 319.946 188.95 317.356 190.65 316.016 193.35 C 315.386 196.33 315.176 199.39 314.776 202.42 C 312.766 204.22 310.536 205.74 308.356 207.33 C 303.696 204.72 298.146 205.4 293.106 206.24 C 292.466 203.97 291.786 201.7 291.386 199.38 C 294.116 197.64 296.196 195.12 298.856 193.31 C 300.976 195.39 301.186 198.57 302.046 201.26 C 304.316 202.25 306.806 202.26 309.246 202.15 C 309.836 201.81 311.016 201.13 311.616 200.8 C 311.696 200.49 311.856 199.87 311.936 199.57 C 310.806 198.49 309.696 197.34 309.496 195.73 C 310.726 195.32 311.946 194.87 313.156 194.38 C 311.836 190.1 309.666 186.18 306.756 182.78 C 307.626 181.45 308.856 180.28 309.276 178.69 C 309.246 175.84 306.436 174.28 304.976 172.14 C 306.486 169.19 307.726 166.11 308.796 162.98 C 309.426 163.05 310.676 163.18 311.306 163.25 C 312.556 161.77 313.676 160.18 314.376 158.36 Z" opacity="1.00" stroke="#fefefd" stroke-width="0.25" fill="#fefefd" transform="matrix(1, 0, 0, 1, -7.105427357601002e-15, 0)"/>
  <path d="M 158.616 164.69 C 160.076 161 163.696 159.58 167.286 158.85 C 166.216 161.06 165.076 163.23 163.806 165.33 C 163.506 164.31 163.216 163.29 162.916 162.27 C 161.466 163.06 160.016 163.84 158.616 164.69 Z" fill="#c74e4e" opacity="1.00" stroke="#c74e4e" stroke-width="0.25" transform="matrix(1, 0, 0, 1, -7.105427357601002e-15, 0)"/>
  <path d="M 169.886 159.25 C 184.236 158.92 198.606 159.46 212.936 158.5 L 213.886 158.68 C 212.346 160.38 210.776 162.04 209.116 163.63 C 204.446 167.92 200.166 172.62 195.806 177.23 C 193.416 179.74 191.746 182.85 190.446 186.05 C 188.166 192.2 191.206 199.33 187.756 205.16 C 188.036 207.76 188.456 210.34 188.706 212.95 L 188.666 213.31 C 181.166 213.26 173.676 213.17 166.176 212.99 C 166.126 211.25 166.086 209.5 166.046 207.77 L 166.821 205.88 C 167.451 205.71 165.476 207.67 166.106 207.49 C 165.986 199.21 166.646 190.95 167.056 182.7 C 167.246 179.72 163.826 179.09 161.586 178.69 C 163.796 171.99 166.616 165.5 169.886 159.25 Z" fill="#c74e4e" opacity="1.00" stroke="#c74e4e" stroke-width="0.25" transform="matrix(1, 0, 0, 1, -7.105427357601002e-15, 0)"/>
  <path d="M 212.086 164.26 C 214.646 162.33 216.936 159.24 220.426 159.24 C 212.386 168.18 210.476 180.32 207.226 191.45 C 207.246 188.79 207.246 186.08 208.016 183.51 C 209.756 177.41 211.426 171.25 214.246 165.54 C 213.706 165.22 212.626 164.58 212.086 164.26 Z" fill="#c74e4e" opacity="1.00" stroke="#c74e4e" stroke-width="0.25" transform="matrix(1, 0, 0, 1, -7.105427357601002e-15, 0)"/>
  <path d="M 220.426 159.24 C 221.936 159.17 223.446 159.13 224.956 159.07 C 222.436 160.95 220.236 163.29 218.846 166.14 C 215.686 172.44 213.556 179.23 212.156 186.13 C 211.506 187.07 210.946 188.06 210.466 189.1 C 211.856 189.72 214.146 189.16 213.936 187.26 C 217.996 186.16 221.356 183.44 225.096 181.61 L 225.506 181.45 C 230.776 179.85 235.766 177.5 240.946 175.64 C 240.456 170.62 238.206 166.01 234.936 162.22 C 235.546 161.97 236.746 161.48 237.346 161.23 C 240.476 164.38 242.836 168.45 243.056 172.96 C 243.736 188.89 241.866 205.02 244.836 220.79 C 245.196 226.82 245.926 232.82 247.056 238.76 C 245.516 241.23 245.726 244.2 246.066 246.97 C 244.986 242.79 244.046 238.59 243.266 234.35 C 242.936 228.99 241.996 223.66 242.046 218.28 C 242.206 215.7 242.386 213.11 242.506 210.53 C 241.526 211.21 240.566 211.9 239.596 212.58 C 239.676 212.95 239.816 213.68 239.896 214.04 C 237.586 214.48 235.286 214.96 232.996 215.44 C 232.826 214.69 232.496 213.18 232.326 212.42 C 235.076 211.8 237.826 211.18 240.566 210.49 C 240.126 200 240.746 189.5 240.566 179.01 C 232.696 181.36 225.196 184.81 217.896 188.56 C 215.256 190.09 212.256 191.31 210.256 193.71 C 208.316 199.89 208.446 206.51 207.106 212.83 C 206.936 214.35 205.766 215.41 204.756 216.43 C 204.636 215.63 204.386 214.02 204.266 213.21 C 205.036 206.02 206.366 198.91 207.166 191.72 C 207.176 191.65 207.216 191.52 207.226 191.45 C 210.476 180.32 212.386 168.18 220.426 159.24 Z" fill="#0f0000" opacity="1.00" stroke="#0f0000" stroke-width="0.25" transform="matrix(1, 0, 0, 1, -7.105427357601002e-15, 0)"/>
  <path d="M 224.956 159.07 C 228.646 158.42 232.406 159.37 234.936 162.22 C 238.206 166.01 240.456 170.62 240.946 175.64 C 235.766 177.5 230.776 179.85 225.506 181.45 C 229.096 177.53 234.826 177.37 238.936 174.28 C 239.076 171.32 237.356 168.68 235.886 166.25 C 233.996 163.3 231.076 160.33 227.336 160.33 C 223.966 160.97 221.866 164.01 220.266 166.79 C 216.886 172.56 215.016 179.09 214.226 185.71 C 217.626 183.82 221.166 182.06 225.096 181.61 C 221.356 183.44 217.996 186.16 213.936 187.26 C 213.486 186.98 212.596 186.41 212.156 186.13 C 213.556 179.23 215.686 172.44 218.846 166.14 C 220.236 163.29 222.436 160.95 224.956 159.07 Z" fill="#c74e4e" opacity="1.00" stroke="#c74e4e" stroke-width="0.25" transform="matrix(1, 0, 0, 1, -7.105427357601002e-15, 0)"/>
  <path d="M 173.346 160.39 C 185.726 160.04 198.156 160.66 210.516 159.65 C 205.076 166.53 198.096 172.04 192.556 178.84 C 191.036 181.36 189.606 184.01 188.876 186.87 C 188.216 191.63 189.366 196.57 187.816 201.22 C 186.566 204.71 186.786 208.46 186.786 212.1 C 181.286 212.2 175.756 212.46 170.276 212 C 168.116 211.89 167.306 209.57 167.326 207.74 C 167.856 198.28 168.026 188.79 167.776 179.31 C 166.406 178.53 165.036 177.75 163.666 176.97 C 165.556 172.82 167.096 168.52 168.816 164.3 C 169.576 162.38 170.966 160.22 173.346 160.39 Z" fill="#c74e4e" opacity="1.00" stroke="#c74e4e" stroke-width="0.25" transform="matrix(1, 0, 0, 1, -7.105427357601002e-15, 0)"/>
  <path d="M 220.266 166.79 C 221.866 164.01 223.966 160.97 227.336 160.33 C 231.076 160.33 233.996 163.3 235.886 166.25 C 237.356 168.68 239.076 171.32 238.936 174.28 C 234.826 177.37 229.096 177.53 225.506 181.45 L 225.096 181.61 C 221.166 182.06 217.626 183.82 214.226 185.71 C 215.016 179.09 216.886 172.56 220.266 166.79 Z" fill="#c74e4e" opacity="1.00" stroke="#c74e4e" stroke-width="0.25" transform="matrix(1, 0, 0, 1, -7.105427357601002e-15, 0)"/>
  <path d="M 158.616 164.69 C 160.016 163.84 161.466 163.06 162.916 162.27 C 163.216 163.29 163.506 164.31 163.806 165.33 C 163.706 165.5 163.506 165.83 163.406 166 C 160.876 168.01 159.456 171.04 159.366 174.26 L 159.636 175.9 C 159.616 175.99 159.576 176.17 159.546 176.26 C 156.786 178.42 156.446 182.12 155.206 185.17 C 154.766 178.51 158.256 172.42 157.966 165.83 C 158.156 165.44 158.376 165.06 158.616 164.69 Z" fill="#c74e4e" opacity="1.00" stroke="#c74e4e" stroke-width="0.25" transform="matrix(1, 0, 0, 1, -7.105427357601002e-15, 0)"/>
  <path d="M 293.786 165.62 C 298.206 163.89 302.326 161.14 307.246 161.02 C 306.396 163.35 306.266 166.35 303.936 167.8 C 303.576 169.47 303.116 171.12 302.886 172.81 C 303.996 175.02 306.636 176.13 307.316 178.65 C 305.846 179.09 303.996 181.42 302.506 179.65 C 300.196 177.85 298.066 175.84 295.826 173.95 C 295.266 171.14 295.216 168.17 293.786 165.62 Z" fill="#fdffff" opacity="1.00" stroke="#fdffff" stroke-width="0.25" transform="matrix(1, 0, 0, 1, -7.105427357601002e-15, 0)"/>
  <path d="M 195.806 177.23 C 200.166 172.62 204.446 167.92 209.116 163.63 C 209.686 163.94 210.816 164.57 211.386 164.89 C 207.826 168.15 204.456 171.63 201.346 175.32 C 199.486 177.38 197.506 179.33 195.546 181.28 C 196.456 181.65 197.366 182.01 198.276 182.37 L 199.506 182.84 C 202.156 185.53 200.466 189.42 200.376 192.69 C 199.726 197.81 199.776 202.99 199.856 208.14 L 198.496 207.78 C 195.656 207.05 192.686 207.31 189.786 207.11 C 189.716 207.47 189.586 208.19 189.516 208.55 C 189.236 210.01 188.946 211.47 188.706 212.95 C 188.456 210.34 188.036 207.76 187.756 205.16 C 191.206 199.33 188.166 192.2 190.446 186.05 C 191.746 182.85 193.416 179.74 195.806 177.23 Z" fill="#040006" opacity="1.00" stroke="#040006" stroke-width="0.25" transform="matrix(1, 0, 0, 1, -7.105427357601002e-15, 0)"/>
  <path d="M 211.386 164.89 C 211.556 164.73 211.906 164.41 212.086 164.26 C 212.626 164.58 213.706 165.22 214.246 165.54 C 211.426 171.25 209.756 177.41 208.016 183.51 C 207.246 186.08 207.246 188.79 207.226 191.45 C 207.216 191.52 207.176 191.65 207.166 191.72 C 203.306 197.64 204.786 205.11 202.616 211.61 C 201.886 210.58 201.156 209.54 200.436 208.51 C 200.256 209.94 200.066 211.38 199.946 212.83 C 199.856 211.32 199.746 209.81 199.556 208.32 L 198.496 207.78 L 199.856 208.14 C 199.776 202.99 199.726 197.81 200.376 192.69 C 200.246 198.02 200.306 203.38 200.926 208.68 C 202.006 200.41 202.016 191.98 201.746 183.64 C 201.186 183.44 200.066 183.04 199.506 182.84 L 198.276 182.37 C 199.216 179.99 200.186 177.61 201.346 175.32 C 204.456 171.63 207.826 168.15 211.386 164.89 Z" fill="#c74e4e" opacity="1.00" stroke="#c74e4e" stroke-width="0.25" transform="matrix(1, 0, 0, 1, -7.105427357601002e-15, 0)"/>
  <path d="M 157.966 165.83 C 158.256 172.42 154.766 178.51 155.206 185.17 C 156.446 182.12 156.786 178.42 159.546 176.26 C 158.576 180.39 157.206 184.44 156.736 188.67 C 156.446 188.26 155.846 187.44 155.556 187.03 C 154.566 188.9 155.126 191.02 156.006 192.81 C 155.796 197.57 155.276 202.31 154.906 207.06 C 154.886 207.44 154.836 208.2 154.816 208.57 C 154.736 210.09 154.686 211.61 154.646 213.13 C 153.666 212.36 152.696 211.59 151.726 210.83 C 151.586 202.44 152.466 194.1 153.176 185.76 C 154.116 179 155.016 172.06 157.966 165.83 Z" fill="#c74e4e" opacity="1.00" stroke="#c74e4e" stroke-width="0.25" transform="matrix(1, 0, 0, 1, -7.105427357601002e-15, 0)"/>
  <path d="M 159.366 174.26 C 159.456 171.04 160.876 168.01 163.406 166 C 162.136 169.29 160.936 172.62 159.636 175.9 L 159.366 174.26 Z" fill="#c74e4e" opacity="1.00" stroke="#c74e4e" stroke-width="0.25" transform="matrix(1, 0, 0, 1, -7.105427357601002e-15, 0)"/>
  <path d="M 195.546 181.28 C 197.506 179.33 199.486 177.38 201.346 175.32 C 200.186 177.61 199.216 179.99 198.276 182.37 C 197.366 182.01 196.456 181.65 195.546 181.28 Z" fill="#c74e4e" opacity="1.00" stroke="#c74e4e" stroke-width="0.25" transform="matrix(1, 0, 0, 1, -7.105427357601002e-15, 0)"/>
  <path d="M 217.896 188.56 C 225.196 184.81 232.696 181.36 240.566 179.01 C 240.746 189.5 240.126 200 240.566 210.49 C 237.826 211.18 235.076 211.8 232.326 212.42 C 231.746 208.27 232.186 204.04 233.576 200.08 L 233.936 200 C 233.946 203.36 233.956 206.72 234.006 210.08 C 235.536 209.74 237.076 209.39 238.616 209.05 C 238.916 199.85 238.926 190.63 238.746 181.43 C 231.156 183.38 224.206 187.09 217.306 190.67 C 214.866 192.17 211.656 193.51 211.046 196.64 C 209.636 202.6 209.676 208.86 207.756 214.71 C 206.886 217.43 203.826 218.36 201.666 219.77 C 201.836 221.95 202.036 224.13 202.256 226.31 C 204.506 223.9 206.576 221.33 208.506 218.67 C 209.636 219.49 210.806 220.27 211.836 221.23 C 212.166 223.75 211.186 226.3 209.786 228.37 C 208.076 230.85 204.876 231.33 202.256 232.32 C 201.336 238.62 204.116 244.59 204.046 250.82 C 204.226 257.17 193.666 257.88 191.706 252.44 C 190.656 249.77 190.476 246.87 189.956 244.07 C 189.136 238.99 187.116 234.22 185.436 229.38 C 179.126 229.38 172.736 228.74 166.506 230.15 C 166.266 229.62 165.796 228.55 165.556 228.01 C 172.866 227.93 180.186 227.94 187.496 228.06 C 187.316 234.17 191.726 239.2 191.656 245.37 C 192.096 248.07 192.366 250.98 194.006 253.28 C 196.356 255.82 201.486 255.43 202.466 251.76 C 203.046 248.61 201.926 245.5 201.396 242.43 C 200.406 238.39 200.856 234.26 201.556 230.22 C 202.886 230.19 204.226 230.17 205.556 230.1 C 208.946 228.32 211.476 223.57 208.866 220.17 C 207.746 222.1 206.806 224.16 205.466 225.96 C 204.236 227.61 201.906 227.16 200.156 227.6 C 199.936 224.2 200.026 220.79 199.876 217.38 C 201.496 217.06 203.136 216.82 204.756 216.43 C 205.766 215.41 206.936 214.35 207.106 212.83 C 208.446 206.51 208.316 199.89 210.256 193.71 C 212.256 191.31 215.256 190.09 217.896 188.56 Z" fill="#c74e4e" opacity="1.00" stroke="#c74e4e" stroke-width="0.25" transform="matrix(1, 0, 0, 1, -7.105427357601002e-15, 0)"/>
  <path d="M 255.676 178.24 C 258.186 183.5 258.956 189.37 261.066 194.79 C 264.006 205.6 268.976 215.72 274.676 225.32 C 277.996 230.02 281.776 235.99 288.276 235.94 C 298.556 235.43 307.086 228.65 314.206 221.79 C 311.956 217.92 309.236 214.35 306.196 211.07 C 303.516 213.58 301.166 216.44 298.366 218.83 C 297.536 219.58 295.916 219.76 295.136 218.87 C 293.096 216.71 292.226 213.78 291.086 211.1 C 289.256 206.09 286.456 201.18 286.896 195.65 C 290.056 203.42 292.166 211.75 296.976 218.75 C 299.846 215.18 303.026 211.89 306.396 208.8 C 310.056 212.82 313.196 217.27 316.076 221.88 C 308.346 229.55 298.706 237.51 287.246 237.34 C 281.496 237.56 277.736 232.56 274.756 228.36 C 267.516 217.11 262.246 204.66 258.516 191.82 C 257.096 187.41 256.176 182.85 255.676 178.24 Z" fill="#f3d149" opacity="1.00" stroke="#f3d149" stroke-width="0.25" transform="matrix(1, 0, 0, 1, -7.105427357601002e-15, 0)"/>
  <path d="M 295.816 185.3 C 295.646 182.96 294.936 180.44 296.066 178.23 C 298.386 179 300.496 180.3 302.326 181.9 C 301.416 184.31 298.026 185.43 298.806 188.55 C 296.506 191.86 294.156 195.15 290.976 197.7 C 289.236 194.41 288.616 190.72 287.676 187.17 C 290.436 186.79 293.226 186.38 295.816 185.3 Z" fill="#fcfefd" opacity="1.00" stroke="#fcfefd" stroke-width="0.25" transform="matrix(1, 0, 0, 1, -7.105427357601002e-15, 0)"/>
  <path d="M 161.666 182.03 C 162.646 182.21 164.376 182.02 164.596 183.36 C 163.516 190.21 163.826 197.15 163.686 204.05 C 161.756 204.04 159.826 204.04 157.896 204.04 C 158.696 196.68 158.266 188.8 161.666 182.03 Z" fill="#f3d149" opacity="1.00" stroke="#f3d149" stroke-width="0.25" transform="matrix(1, 0, 0, 1, -7.105427357601002e-15, 0)"/>
  <path d="M 217.306 190.67 C 224.206 187.09 231.156 183.38 238.746 181.43 C 238.926 190.63 239.642 201.698 239.342 210.898 C 237.802 211.238 231.001 212.954 231.001 212.954 C 229.694 213.699 227.771 213.846 224.734 214.247 C 220.518 216.287 220.962 213.437 214.906 214.95 C 214.856 224.21 215.306 233.47 215.126 242.73 C 215.186 249.03 214.516 255.44 215.956 261.64 C 216.786 264.62 219.626 266.3 222.376 267.24 C 221.876 267.44 230.772 267.902 230.272 268.102 C 231.571 268.54 232.595 267.361 237.035 267.861 C 229.99 271.574 222.056 271.08 216.266 271.19 C 205.946 271.13 195.636 271.21 185.326 271.09 C 178.266 271.01 170.956 269.21 165.396 264.69 C 162.306 262.19 161.286 258.18 160.296 254.52 C 162.176 254.04 164.056 253.54 165.936 253.05 C 166.416 247.4 165.216 241.82 164.956 236.2 C 166.126 234.4 166.926 232.34 166.506 230.15 C 172.736 228.74 179.126 229.38 185.436 229.38 C 187.116 234.22 189.136 238.99 189.956 244.07 C 190.476 246.87 190.656 249.77 191.706 252.44 C 193.666 257.88 204.226 257.17 204.046 250.82 C 204.116 244.59 201.336 238.62 202.256 232.32 C 204.876 231.33 208.076 230.85 209.786 228.37 C 211.186 226.3 212.166 223.75 211.836 221.23 C 210.806 220.27 209.636 219.49 208.506 218.67 C 206.576 221.33 204.506 223.9 202.256 226.31 C 202.036 224.13 201.836 221.95 201.666 219.77 C 203.826 218.36 206.886 217.43 207.756 214.71 C 209.676 208.86 209.636 202.6 211.046 196.64 C 211.656 193.51 214.866 192.17 217.306 190.67 Z" fill="#c74e4e" opacity="1.00" stroke="#c74e4e" stroke-width="0.25" transform="matrix(1, 0, 0, 1, -7.105427357601002e-15, 0)"/>
  <path d="M 199.506 182.84 C 200.066 183.04 201.186 183.44 201.746 183.64 C 202.016 191.98 202.006 200.41 200.926 208.68 C 200.306 203.38 200.246 198.02 200.376 192.69 C 200.466 189.42 202.156 185.53 199.506 182.84 Z" fill="#c74e4e" opacity="1.00" stroke="#c74e4e" stroke-width="0.25" transform="matrix(1, 0, 0, 1, -7.105427357601002e-15, 0)"/>
  <path d="M 324.736 192.31 C 327.796 189.26 329.156 184.96 332.146 181.85 C 335.316 182.63 333.506 187.06 335.016 189.21 C 336.276 190.86 337.596 192.5 338.416 194.44 C 336.426 198.17 338.176 203.89 333.716 206 C 327.586 209.41 322.206 214.07 317.666 219.4 C 315.086 215.82 312.276 212.41 309.646 208.86 C 311.786 207.48 314.276 206.43 315.906 204.42 C 317.726 201.46 317.206 197.8 318.106 194.56 C 318.726 192.87 320.366 191.89 321.606 190.69 C 322.456 191.45 323.316 193.11 324.736 192.31 Z" fill="#f5cda8" opacity="1.00" stroke="#f5cda8" stroke-width="0.25" transform="matrix(1, 0, 0, 1, -7.105427357601002e-15, 0)"/>
  <path d="M 192.936 186.81 C 193.216 185.59 194.406 184.95 195.216 184.1 C 196.096 184.77 197.006 185.4 197.836 186.13 C 197.906 192.18 196.856 198.2 197.006 204.26 C 195.206 204.24 193.416 204.22 191.626 204.21 C 191.866 198.41 191.586 192.5 192.936 186.81 Z" fill="#f3d149" opacity="1.00" stroke="#f3d149" stroke-width="0.25" transform="matrix(1, 0, 0, 1, -7.105427357601002e-15, 0)"/>
  <path d="M 302.516 185.87 C 303.096 185.13 303.696 184.4 304.316 183.68 C 305.936 185.4 307.506 187.2 308.726 189.24 C 309.656 191.09 308.686 193.15 307.946 194.89 C 307.016 196.75 307.996 198.79 308.116 200.71 C 305.536 200.74 302.716 199.67 303.576 196.59 C 302.196 193.67 300.006 191.05 299.676 187.73 C 300.616 187.11 301.566 186.49 302.516 185.87 Z" fill="#fefeff" opacity="1.00" stroke="#fefeff" stroke-width="0.25" transform="matrix(1, 0, 0, 1, -7.105427357601002e-15, 0)"/>
  <path d="M 155.556 187.03 C 155.846 187.44 156.446 188.26 156.736 188.67 C 156.646 190.07 156.306 191.44 156.006 192.81 C 155.126 191.02 154.566 188.9 155.556 187.03 Z" fill="#c74e4e" opacity="1.00" stroke="#c74e4e" stroke-width="0.25" transform="matrix(1, 0, 0, 1, -7.105427357601002e-15, 0)"/>
  <path d="M 210.466 189.1 C 210.946 188.06 211.506 187.07 212.156 186.13 C 212.596 186.41 213.486 186.98 213.936 187.26 C 214.146 189.16 211.856 189.72 210.466 189.1 Z" fill="#000000" opacity="1.00" stroke="#000000" stroke-width="0.25" transform="matrix(1, 0, 0, 1, -7.105427357601002e-15, 0)"/>
  <path d="M 202.616 211.61 C 204.786 205.11 203.306 197.64 207.166 191.72 C 206.366 198.91 205.036 206.02 204.266 213.21 C 202.816 213.16 201.376 213.17 199.936 213.17 L 199.946 212.83 C 200.066 211.38 200.256 209.94 200.436 208.51 C 201.156 209.54 201.886 210.58 202.616 211.61 Z" fill="#c74e4e" opacity="1.00" stroke="#c74e4e" stroke-width="0.25" transform="matrix(1, 0, 0, 1, -7.105427357601002e-15, 0)"/>
  <path d="M 156.657 207.06 C 160.397 206.98 160.33 206.296 164.03 206.906 C 163.4 207.086 164.856 207.85 164.226 208.02 C 161.116 208.53 159.253 208.141 156.113 208.181 C 156.133 207.811 156.637 207.44 156.657 207.06 Z" opacity="1.00" stroke-width="0.25" style="fill: rgb(47, 182, 206); stroke: rgb(47, 182, 206);" transform="matrix(1, 0, 0, 1, -7.105427357601002e-15, 0)"/>
  <path d="M 189.786 207.11 C 192.686 207.31 195.656 207.05 198.496 207.78 L 199.556 208.32 C 196.226 208.81 192.866 208.71 189.516 208.55 C 189.586 208.19 189.716 207.47 189.786 207.11 Z" opacity="1.00" stroke-width="0.25" style="fill: rgb(47, 182, 206); stroke: rgb(47, 182, 206);" transform="matrix(1, 0, 0, 1, -7.105427357601002e-15, 0)"/>
  <path d="M 294.566 208.28 C 297.616 207.7 300.726 207.38 303.836 207.65 C 302.556 209.56 300.826 211.09 299.056 212.53 C 298.406 213.31 297.786 214.11 297.136 214.89 C 296.226 212.7 295.326 210.52 294.566 208.28 Z" fill="#fefeff" opacity="1.00" stroke="#fefeff" stroke-width="0.25" transform="matrix(1, 0, 0, 1, -7.105427357601002e-15, 0)"/>
  <path d="M 189.516 208.55 C 192.866 208.71 196.226 208.81 199.556 208.32 C 199.746 209.81 199.856 211.32 199.946 212.83 L 199.936 213.17 C 201.376 213.17 202.816 213.16 204.266 213.21 C 204.386 214.02 204.636 215.63 204.756 216.43 C 203.136 216.82 201.496 217.06 199.876 217.38 C 200.026 220.79 199.936 224.2 200.156 227.6 C 200.366 227.95 200.806 228.65 201.016 229 C 202.516 229.42 204.036 229.75 205.556 230.1 C 204.226 230.17 202.886 230.19 201.556 230.22 C 200.856 234.26 200.406 238.39 201.396 242.43 C 201.156 245.99 200.676 249.54 200.266 253.08 C 198.866 252.85 197.476 252.62 196.096 252.34 C 197.476 252.26 200.496 252.17 199.596 249.92 C 199.156 246.38 198.546 242.85 197.816 239.36 C 196.336 239.54 194.856 239.73 193.386 239.93 C 193.626 241.8 193.866 243.68 194.176 245.54 L 191.656 245.37 C 191.726 239.2 187.316 234.17 187.496 228.06 C 180.186 227.94 172.866 227.93 165.556 228.01 L 165.186 227.22 C 165.336 226.67 165.616 225.57 165.756 225.02 C 173.966 224.91 182.166 225.18 190.376 225.17 C 189.906 222.17 189.386 219.19 188.976 216.19 C 188.866 215.23 188.766 214.27 188.666 213.31 L 188.706 212.95 C 188.946 211.47 189.236 210.01 189.516 208.55 Z" opacity="1.00" stroke="#070019" stroke-width="0.25" style="" transform="matrix(1, 0, 0, 1, -7.105427357601002e-15, 0)"/>
  <path d="M 320.156 220.59 C 324.186 216.34 327.576 211.15 332.976 208.51 C 333.766 213.13 334.036 217.82 334.806 222.44 C 332.586 223.16 330.376 223.91 328.136 224.53 C 329.096 222.32 331.096 220.39 330.716 217.79 C 328.966 219.54 326.336 220.99 326.196 223.76 C 326.156 225.5 326.456 227.23 326.616 228.96 C 320.116 230.55 314.206 233.79 308.156 236.57 C 300.056 240.23 291.766 243.95 284.906 249.73 C 283.196 245.95 281.746 242.06 280.166 238.23 C 283.716 239.46 287.506 240.53 291.306 239.9 C 296.276 239.33 300.646 236.72 304.876 234.24 C 310.676 230.57 316.106 226.17 320.156 220.59 Z" fill="#fdfdff" opacity="1.00" stroke="#fdfdff" stroke-width="0.25" transform="matrix(1, 0, 0, 1, -7.105427357601002e-15, 0)"/>
  <path d="M 157.966 210.47 C 159.796 210.47 161.616 210.47 163.446 210.47 C 163.876 214.46 165.496 218.78 163.616 222.62 C 163.896 218.8 163.216 215.01 162.866 211.21 C 161.836 211.22 159.766 211.23 158.736 211.23 C 159.036 215.53 158.926 219.88 159.656 224.15 C 160.376 224.13 161.826 224.09 162.546 224.07 C 163.386 224.15 165.076 224.32 165.926 224.41 L 165.756 225.02 C 165.616 225.57 165.336 226.67 165.186 227.22 C 164.706 228.95 164.226 230.68 163.656 232.38 C 163.416 232 162.946 231.23 162.706 230.84 C 162.346 230.25 161.616 229.08 161.256 228.5 C 161.066 228.18 160.686 227.55 160.496 227.24 C 158.006 222.02 157.786 216.14 157.966 210.47 Z" opacity="1.00" stroke="#0a0634" stroke-width="0.25" style="" transform="matrix(1, 0, 0, 1, -7.105427357601002e-15, 0)"/>
  <path d="M 191.716 211.38 C 193.166 211.39 194.616 211.39 196.066 211.39 C 196.236 215.36 196.586 219.32 196.606 223.3 C 195.376 223.31 194.156 223.32 192.926 223.32 C 192.146 219.39 191.806 215.39 191.716 211.38 Z" opacity="1.00" stroke-width="0.25" style="fill: rgb(252, 192, 6); stroke: rgb(252, 192, 6);" transform="matrix(1, 0, 0, 1, -7.105427357601002e-15, 0)"/>
  <path d="M 158.736 211.23 C 159.766 211.23 161.836 211.22 162.866 211.21 C 163.216 215.01 163.896 218.8 163.616 222.62 L 162.546 224.07 C 161.826 224.09 160.376 224.13 159.656 224.15 C 158.926 219.88 159.036 215.53 158.736 211.23 Z" opacity="1.00" stroke-width="0.25" style="fill: rgb(252, 192, 6); stroke: rgb(252, 192, 6);" transform="matrix(1, 0, 0, 1, -7.105427357601002e-15, 0)"/>
  <path d="M 220.206 218.3 C 224.446 217.27 228.716 216.35 232.996 215.44 C 235.286 214.96 237.586 214.48 239.896 214.04 C 239.996 214.54 240.196 215.54 240.296 216.03 C 232.496 217.58 224.766 219.71 216.846 220.38 C 217.766 219.39 218.786 218.47 220.206 218.3 Z" opacity="1.00" stroke-width="0.25" style="stroke: rgb(32, 32, 32); fill: rgb(47, 182, 206);" transform="matrix(1, 0, 0, 1, -7.105427357601002e-15, 0)"/>
  <path d="M 166.616 216.03 C 174.066 216.21 181.526 216.41 188.976 216.19 C 189.386 219.19 189.906 222.17 190.376 225.17 C 182.166 225.18 173.966 224.91 165.756 225.02 L 165.926 224.41 C 166.896 221.71 166.886 218.85 166.616 216.03 Z" opacity="1.00" stroke="#eeca50" stroke-width="0.25" style="fill: rgb(47, 182, 206);" transform="matrix(1, 0, 0, 1, -7.105427357601002e-15, 0)"/>
  <path d="M 168.436 217.64 C 174.326 217.55 180.306 216.91 186.136 217.93 C 188.886 218.57 188.066 221.93 188.616 223.99 C 181.686 223.81 174.666 224.69 167.816 223.31 C 168.026 221.42 168.236 219.53 168.436 217.64 Z" opacity="1.00" stroke-width="0.25" style="fill: rgb(47, 182, 206); stroke: rgb(47, 182, 206);" transform="matrix(1, 0, 0, 1, -7.105427357601002e-15, 0)"/>
  <path d="M 218.166 223.03 C 226.176 221.74 234.156 220.21 242.046 218.28 C 241.996 223.66 242.936 228.99 243.266 234.35 C 241.576 230 240.806 225.38 240.326 220.75 C 233.586 221.59 226.526 222.13 220.266 224.86 C 219.336 230.45 219.976 236.15 219.806 241.79 C 219.946 247.43 219.256 253.13 220.116 258.73 C 220.436 261.62 223.636 262.31 225.766 263.5 C 225.736 263.83 225.686 264.51 225.666 264.84 C 223.416 264.39 220.696 263.99 219.456 261.77 C 217.976 259.04 218.136 255.79 218.076 252.79 C 218.216 242.87 218.126 232.95 218.166 223.03 Z" fill="#e0bd4b" opacity="1.00" stroke="#e0bd4b" stroke-width="0.25" transform="matrix(1, 0, 0, 1, -7.105427357601002e-15, 0)"/>
  <path d="M 205.466 225.96 C 206.806 224.16 207.746 222.1 208.866 220.17 C 211.476 223.57 208.946 228.32 205.556 230.1 C 204.036 229.75 202.516 229.42 201.016 229 C 200.806 228.65 200.366 227.95 200.156 227.6 C 201.906 227.16 204.236 227.61 205.466 225.96 Z" fill="#0d0000" opacity="1.00" stroke="#0d0000" stroke-width="0.25" transform="matrix(1, 0, 0, 1, -7.105427357601002e-15, 0)"/>
  <path d="M 220.266 224.86 C 226.526 222.13 233.586 221.59 240.326 220.75 C 240.806 225.38 241.576 230 243.266 234.35 C 244.046 238.59 244.986 242.79 246.066 246.97 C 248.136 253.44 245.666 261.63 239.216 264.54 C 234.846 265.9 230.146 265.12 225.666 264.84 C 225.686 264.51 225.736 263.83 225.766 263.5 C 223.636 262.31 220.436 261.62 220.116 258.73 C 219.256 253.13 219.946 247.43 219.806 241.79 C 219.976 236.15 219.336 230.45 220.266 224.86 Z" fill="#fcc006" opacity="1.00" stroke="#fcc006" stroke-width="0.25" transform="matrix(1, 0, 0, 1, -7.105427357601002e-15, 0)"/>
  <path d="M 154.786 228.02 C 156.626 227.4 158.556 227.21 160.496 227.24 C 160.686 227.55 161.066 228.18 161.256 228.5 C 159.086 228.46 156.926 228.34 154.786 228.02 Z" opacity="1.00" stroke-width="0.25" style="fill: rgb(47, 182, 206); stroke: rgb(47, 182, 206);" transform="matrix(1, 0, 0, 1, -7.105427357601002e-15, 0)"/>
  <path d="M 190.336 229.13 C 192.426 227.45 194.906 226.55 197.606 227.23 C 195.366 228.43 192.796 228.69 190.336 229.13 Z" opacity="1.00" stroke-width="0.25" style="fill: rgb(47, 182, 206); stroke: rgb(47, 182, 206);" transform="matrix(1, 0, 0, 1, -7.105427357601002e-15, 0)"/>
  <path d="M 268.45 234.519 C 271.39 234.449 268.796 232.03 269.126 233.77 C 269.276 245.86 270.196 257.99 269.426 270.07 C 268.146 266.43 268.706 262.55 268.686 258.78 C 268.676 250.8 268.966 242.74 267.276 234.88 C 267.006 232.94 268.55 236.459 268.45 234.519 Z" fill="#ddb75d" opacity="1.00" stroke="#ddb75d" stroke-width="0.25" transform="matrix(1, 0, 0, 1, -7.105427357601002e-15, 0)"/>
  <path d="M 154.806 231.32 C 157.416 230.92 160.066 230.88 162.706 230.84 C 162.946 231.23 163.416 232 163.656 232.38 C 160.686 232.79 157.376 233.21 154.806 231.32 Z" opacity="1.00" stroke-width="0.25" style="fill: rgb(47, 182, 206); stroke: rgb(47, 182, 206);" transform="matrix(1, 0, 0, 1, -7.105427357601002e-15, 0)"/>
  <path d="M 190.646 231.49 C 193.536 231.38 196.466 230.64 199.316 231.38 C 197.056 233.6 193.846 233.29 190.936 233.14 C 190.866 232.73 190.726 231.91 190.646 231.49 Z" opacity="1.00" stroke-width="0.25" style="fill: rgb(47, 182, 206); stroke: rgb(47, 182, 206);" transform="matrix(1, 0, 0, 1, -7.105427357601002e-15, 0)"/>
  <path d="M 289.376 248.47 C 301.026 241.58 313.626 236.54 325.996 231.13 C 326.066 232.13 326.126 233.14 326.196 234.15 C 314.036 239.19 301.846 244.29 290.526 251.06 C 288.596 251.85 286.886 253.96 284.656 253.25 C 285.626 251.15 287.506 249.73 289.376 248.47 Z" fill="#fdfeff" opacity="1.00" stroke="#fdfeff" stroke-width="0.25" transform="matrix(1, 0, 0, 1, -7.105427357601002e-15, 0)"/>
  <path d="M 156.556 235.37 C 158.426 235.37 160.306 235.36 162.176 235.3 C 162.066 235.79 161.846 236.76 161.726 237.24 C 160.116 237.24 158.506 237.24 156.896 237.24 C 156.806 236.77 156.636 235.84 156.556 235.37 Z" opacity="1.00" stroke-width="0.25" style="fill: rgb(47, 182, 206); stroke: rgb(47, 182, 206);" transform="matrix(1, 0, 0, 1, -7.105427357601002e-15, 0)"/>
  <path d="M 192.676 235.66 C 194.426 235.62 196.186 235.53 197.936 235.41 C 197.886 235.87 197.796 236.8 197.756 237.26 C 196.036 237.43 194.306 237.57 192.586 237.68 C 192.606 237.18 192.656 236.16 192.676 235.66 Z" opacity="1.00" stroke-width="0.25" style="fill: rgb(47, 182, 206); stroke: rgb(47, 182, 206);" transform="matrix(1, 0, 0, 1, -7.105427357601002e-15, 0)"/>
  <path d="M 267.276 234.88 C 268.966 242.74 268.676 250.8 268.686 258.78 C 268.706 262.55 268.146 266.43 269.426 270.07 C 259.396 272.61 249.366 275.33 239.056 276.51 C 236.776 276.1 234.526 275.62 232.256 275.16 C 238.116 271.8 243.966 267.98 247.876 262.34 C 250.436 258.85 249.986 253.85 253.406 250.89 C 255.496 249.11 256.296 246.52 256.716 243.89 C 258.566 240.18 261.486 237.15 265.166 235.21 C 265.696 235.13 266.746 234.96 267.276 234.88 Z" fill="#fcc206" opacity="1.00" stroke="#fcc206" stroke-width="0.25" transform="matrix(1, 0, 0, 1, -7.105427357601002e-15, 0)"/>
  <path d="M 157.206 238.93 C 158.886 238.92 160.576 238.92 162.266 238.91 C 162.666 242.92 163.516 246.9 163.596 250.93 C 161.996 251.56 160.256 251.71 158.576 251.97 C 157.676 247.68 157.416 243.3 157.206 238.93 Z" fill="#7b7a8e" opacity="1.00" stroke="#7b7a8e" stroke-width="0.25" transform="matrix(1, 0, 0, 1, -7.105427357601002e-15, 0)"/>
  <path d="M 157.596 239.57 C 158.606 239.58 160.636 239.61 161.646 239.62 C 162.456 243.3 162.856 247.05 163.056 250.81 C 162.016 250.87 159.936 250.99 158.896 251.05 C 158.376 247.23 158.036 243.39 157.596 239.57 Z" opacity="1.00" stroke-width="0.25" style="fill: rgb(252, 192, 6); stroke: rgb(252, 192, 6);" transform="matrix(1, 0, 0, 1, -7.105427357601002e-15, 0)"/>
  <path d="M 193.386 239.93 C 194.856 239.73 196.336 239.54 197.816 239.36 C 198.546 242.85 199.156 246.38 199.596 249.92 C 200.496 252.17 197.476 252.26 196.096 252.34 C 194.916 250.25 194.656 247.84 194.176 245.54 C 193.866 243.68 193.626 241.8 193.386 239.93 Z" opacity="1.00" stroke-width="0.25" style="fill: rgb(252, 192, 6); stroke: rgb(252, 192, 6);" transform="matrix(1, 0, 0, 1, -7.105427357601002e-15, 0)"/>
  <path d="M 112.656 253.28 C 114.576 247.56 119.126 242.41 125.206 241.14 C 131.636 239.75 138.616 244.04 140.406 250.34 C 143.256 250.63 146.516 250.33 148.906 252.24 C 151.076 253.84 151.776 256.57 152.596 259 C 133.306 258.95 99.72 259.105 103.27 259.025 C 103.42 258.365 105.766 255.52 105.916 254.87 C 107.986 253.7 110.256 253.05 112.656 253.28 Z" opacity="1.00" stroke="#0e050a" style="stroke-width: 2px; fill: rgb(255, 255, 255); fill-opacity: 0.4;" transform="matrix(1, 0, 0, 1, -7.105427357601002e-15, 0)"/>
  <path d="M 201.396 242.43 C 201.926 245.5 203.046 248.61 202.466 251.76 C 201.486 255.43 196.356 255.82 194.006 253.28 C 192.366 250.98 192.096 248.07 191.656 245.37 L 194.176 245.54 C 194.656 247.84 194.916 250.25 196.096 252.34 C 197.476 252.62 198.866 252.85 200.266 253.08 C 200.676 249.54 201.156 245.99 201.396 242.43 Z" fill="#0f0000" opacity="1.00" stroke="#0f0000" stroke-width="0.25" transform="matrix(1, 0, 0, 1, -7.105427357601002e-15, 0)"/>
  <path d="M 250.186 251.3 C 252.756 249.2 255.156 246.88 256.716 243.89 C 256.296 246.52 255.496 249.11 253.406 250.89 C 249.986 253.85 250.436 258.85 247.876 262.34 C 243.966 267.98 238.116 271.8 232.256 275.16 C 234.526 275.62 236.776 276.1 239.056 276.51 C 228.906 277.97 218.646 276.64 208.456 276.98 C 206.066 276.94 203.686 276.89 201.306 276.92 C 197.636 276.47 193.706 276.51 190.536 274.33 C 203.546 272.6 216.706 274.95 229.726 273.43 C 232.896 273.11 235.766 271.57 238.266 269.68 C 242.066 266.8 245.756 263.58 248.166 259.41 C 249.616 256.95 249.466 253.99 250.186 251.3 Z" fill="#f3bb53" opacity="1.00" stroke="#f3bb53" stroke-width="0.25" transform="matrix(1, 0, 0, 1, -7.105427357601002e-15, 0)"/>
  <path d="M 323.076 256.95 C 328.076 248.46 338.676 243.42 348.356 246.03 C 356.896 248.29 363.126 255.78 365.486 264.08 C 365.766 263.26 376.786 264.22 380.946 267.99 C 381.916 269.5 382.686 271.12 383.406 272.77 C 384.136 272.89 379.006 274.43 374.286 274.6 C 349.736 274.48 307.239 274.45 310.509 274.46 C 310.539 273.88 310.926 271.33 310.956 270.75 C 313.336 268.34 316.276 266.55 319.806 266.79 C 320.586 263.42 321.486 260.05 323.076 256.95 Z" opacity="1.00" stroke="#0e050a" style="stroke-width: 2px; fill: rgb(205, 205, 205); fill-opacity: 0.4;" transform="matrix(1, 0, 0, 1, -7.105427357601002e-15, 0)"/>
  <path d="M 224.316 278.81 C 238.766 279.65 252.756 275.44 266.826 272.95 C 268.266 282.48 267.416 292.13 267.326 301.71 C 267.216 311.08 266.426 320.43 265.146 329.71 C 264.626 333.23 264.766 336.79 265.056 340.33 C 265.126 340.91 265.036 341.46 264.796 341.98 C 263.196 344.31 262.026 346.94 261.856 349.8 C 260.706 362.47 258.156 375.03 258.186 387.78 C 258.556 397.12 258.326 406.46 258.126 415.79 C 257.876 416.82 258.456 418.84 256.846 418.83 C 250.116 418.18 243.356 418.7 236.616 418.64 C 233.966 410.4 234.056 401.65 232.826 393.15 C 232.016 387.56 233.416 381.73 231.466 376.3 L 231.316 375.78 C 231.876 365.17 234.246 354.52 232.536 343.9 C 232.206 340.88 231.436 337.86 231.736 334.81 C 232.926 328.12 231.576 321.37 229.936 314.88 C 229.546 313.28 228.536 311.94 227.606 310.62 L 227.496 310.45 C 227.036 308.88 226.616 307.31 226.156 305.75 C 225.706 310.15 225.586 314.58 225.136 318.98 L 224.786 318.69 C 224.476 318.43 223.856 317.92 223.546 317.67 C 222.716 322.3 222.436 327 221.876 331.67 C 218.936 350.83 212.616 369.42 211.556 388.87 C 210.586 398.01 212.586 407.69 208.656 416.33 C 202.776 416.29 196.886 416.18 191.016 416.53 C 191.456 416.62 192.346 416.79 192.786 416.88 C 192.046 416.95 190.576 417.08 189.836 417.15 C 189.366 416.61 188.906 416.07 188.456 415.54 C 188.666 408.93 187.786 402.35 187.936 395.75 C 187.386 379.7 190.566 363.79 189.896 347.74 C 190.106 324.17 189.556 300.6 190.066 277.04 C 193.796 277.65 197.596 277.71 201.306 276.92 C 203.686 276.89 206.066 276.94 208.456 276.98 C 213.376 279.42 219.046 278.26 224.316 278.81 Z" fill="#2fb6ce" opacity="1.00" stroke="#202020" stroke-width="2" transform="matrix(1, 0, 0, 1, -7.105427357601002e-15, 0)"/>
  <path d="M 227.606 310.62 C 228.536 311.94 229.546 313.28 229.936 314.88 C 231.576 321.37 232.926 328.12 231.736 334.81 L 231.636 335.68 C 230.286 327.32 229.016 318.96 227.606 310.62 Z" fill="#070019" opacity="1.00" stroke="#070019" stroke-width="0.25" transform="matrix(1, 0, 0, 1, -7.105427357601002e-15, 0)"/>
  <path d="M 223.546 317.67 C 223.856 317.92 224.476 318.43 224.786 318.69 C 224.606 337.07 218.576 354.7 215.206 372.63 C 212.096 388.04 213.956 403.91 211.096 419.35 C 209.926 419.44 208.756 419.53 207.586 419.64 C 207.316 422.99 206.756 426.38 207.216 429.74 C 208.996 430.76 206.551 433.256 208.081 434.656 C 209.991 434.956 208.261 436.308 209.591 437.808 C 207.791 439.414 213.144 439.296 212.946 439.36 C 216.436 442.41 221.716 443.37 224.036 447.71 L 223.066 449.39 C 213.206 449.63 203.336 449.3 193.476 449.53 C 192.946 448.92 191.896 447.7 191.366 447.09 C 191.726 445.97 192.146 444.87 192.576 443.79 C 193.196 442.94 193.846 442.13 194.506 441.32 C 197.646 441.34 200.796 441.12 203.866 440.46 C 203.866 437.63 203.776 434.8 203.816 431.98 C 203.866 431.52 203.976 430.6 204.026 430.14 C 204.226 429.85 204.616 429.28 204.816 429 C 205.096 426.05 204.936 423.08 204.846 420.13 C 201.006 419.97 197.166 419.82 193.326 420 C 193.316 420.37 193.286 421.1 193.266 421.47 C 192.816 421.38 191.916 421.22 191.476 421.14 C 191.496 421.55 191.536 422.38 191.566 422.79 C 191.286 421.7 191.026 420.62 190.766 419.55 C 189.976 419.48 188.396 419.33 187.606 419.26 C 187.536 417.61 187.476 415.96 187.446 414.32 L 188.456 415.54 C 188.906 416.07 189.366 416.61 189.836 417.15 C 190.576 417.08 192.046 416.95 192.786 416.88 C 197.806 416.88 202.836 417.02 207.856 417.01 C 208.056 416.84 208.456 416.5 208.656 416.33 C 212.586 407.69 210.586 398.01 211.556 388.87 C 212.616 369.42 218.936 350.83 221.876 331.67 C 222.436 327 222.716 322.3 223.546 317.67 Z" opacity="1.00" stroke="#04042f" stroke-width="0.25" style="" transform="matrix(1, 0, 0, 1, -7.105427357601002e-15, 0)"/>
  <path d="M 261.856 349.8 C 262.026 346.94 263.196 344.31 264.796 341.98 C 264.296 348.18 262.996 354.28 262.306 360.47 C 261.306 367.9 260.576 375.37 259.966 382.85 C 259.296 394.87 259.926 406.91 259.526 418.93 C 259.586 420.36 258.466 421.39 257.826 422.56 C 257.846 425.01 257.916 427.47 258.026 429.93 C 259.546 430.07 260.386 432.28 258.266 432.8 C 257.576 431.8 256.876 430.82 256.156 429.85 C 255.946 427.3 255.796 424.74 255.666 422.19 C 250.986 421.94 246.296 421.95 241.606 422.06 C 242.176 424.91 242.726 427.77 243.236 430.64 C 246.556 430.57 249.876 430.48 253.176 430.18 C 253.076 430.92 252.866 432.4 252.766 433.14 C 249.716 433 246.656 432.95 243.606 432.95 C 243.756 435.37 243.916 437.8 244.036 440.23 C 243.216 441.47 242.396 442.71 241.656 444 C 241.876 436.67 240.606 429.42 239.676 422.17 C 238.076 422.1 236.476 422.03 234.896 421.99 C 234.856 421.79 234.796 421.41 234.766 421.21 C 233.386 412.55 232.076 403.86 231.406 395.11 C 230.936 388.86 230.686 382.54 231.466 376.3 C 233.416 381.73 232.016 387.56 232.826 393.15 C 234.056 401.65 233.966 410.4 236.616 418.64 L 236.766 419.05 C 243.446 419.07 250.176 419.52 256.846 418.83 C 258.456 418.84 257.876 416.82 258.126 415.79 C 258.326 406.46 258.556 397.12 258.186 387.78 C 258.156 375.03 260.706 362.47 261.856 349.8 Z" opacity="1.00" stroke="#070019" stroke-width="0.25" style="" transform="matrix(1, 0, 0, 1, -7.105427357601002e-15, 0)"/>
  <path d="M 193.326 420 C 197.166 419.82 201.006 419.97 204.846 420.13 C 204.936 423.08 205.096 426.05 204.816 429 C 204.616 429.28 204.226 429.85 204.026 430.14 C 200.706 429.9 197.396 429.63 194.076 429.46 C 193.736 426.8 193.396 424.14 193.266 421.47 C 193.286 421.1 193.316 420.37 193.326 420 Z" opacity="1.00" stroke="#7b4452" stroke-width="0.25" style="fill: rgb(245, 205, 168);" transform="matrix(1, 0, 0, 1, -7.105427357601002e-15, 0)"/>
  <path d="M 191.476 421.14 C 191.916 421.22 192.816 421.38 193.266 421.47 C 193.396 424.14 193.736 426.8 194.076 429.46 C 197.396 429.63 200.706 429.9 204.026 430.14 C 203.976 430.6 203.866 431.52 203.816 431.98 C 200.806 432 197.796 432 194.796 432.05 C 194.866 434.75 194.916 437.46 194.966 440.17 C 197.936 440.21 200.906 440.25 203.866 440.46 C 200.796 441.12 197.646 441.34 194.506 441.32 C 193.846 442.13 193.196 442.94 192.576 443.79 C 192.856 440.71 192.596 437.63 192.426 434.56 C 192.176 430.63 191.796 426.71 191.566 422.79 C 191.536 422.38 191.496 421.55 191.476 421.14 Z" fill="#100000" opacity="1.00" stroke="#100000" stroke-width="0.25" transform="matrix(1, 0, 0, 1, -7.105427357601002e-15, 0)"/>
  <path d="M 241.606 422.06 C 246.296 421.95 250.986 421.94 255.666 422.19 C 255.796 424.74 255.946 427.3 256.156 429.85 C 255.166 429.96 254.166 430.07 253.176 430.18 C 249.876 430.48 246.556 430.57 243.236 430.64 C 242.726 427.77 242.176 424.91 241.606 422.06 Z" opacity="1.00" stroke="#763e53" stroke-width="0.25" style="fill: rgb(245, 205, 168);" transform="matrix(1, 0, 0, 1, -7.105427357601002e-15, 0)"/>
  <path d="M 253.176 430.18 C 254.166 430.07 255.166 429.96 256.156 429.85 C 256.876 430.82 257.576 431.8 258.266 432.8 C 258.496 433.13 258.946 433.78 259.176 434.1 C 262.566 433.22 264.436 434.86 261.926 436.09 C 262.946 437.79 273.376 442.5 277.596 443.79 C 277.046 443.74 275.946 443.66 275.396 443.62 C 277.276 445.77 281.056 447.57 280.266 450.95 L 279.616 449.3 C 267.146 449.62 254.656 449.27 242.186 449.63 C 241.896 448.51 241.626 447.39 241.366 446.28 C 241.436 445.71 241.586 444.57 241.656 444 C 242.396 442.71 243.216 441.47 244.036 440.23 C 246.616 440.28 249.206 440.35 251.776 440.11 C 253.116 438.09 252.336 435.43 252.766 433.14 C 252.866 432.4 253.076 430.92 253.176 430.18 Z" opacity="1.00" stroke="#040431" stroke-width="0.25" style="" transform="matrix(1, 0, 0, 1, -7.105427357601002e-15, 0)"/>
  <path d="M 194.796 432.05 C 197.796 432 200.806 432 203.816 431.98 C 203.776 434.8 203.866 437.63 203.866 440.46 C 200.906 440.25 197.936 440.21 194.966 440.17 C 194.916 437.46 194.866 434.75 194.796 432.05 Z" fill="#eeca50" opacity="1.00" stroke="#eeca50" stroke-width="0.25" transform="matrix(1, 0, 0, 1, -7.105427357601002e-15, 0)"/>
  <path d="M 243.606 432.95 C 246.656 432.95 249.716 433 252.766 433.14 C 252.336 435.43 253.116 438.09 251.776 440.11 C 249.206 440.35 246.616 440.28 244.036 440.23 C 243.916 437.8 243.756 435.37 243.606 432.95 Z" fill="#eeca50" opacity="1.00" stroke="#eeca50" stroke-width="0.25" transform="matrix(1, 0, 0, 1, -7.105427357601002e-15, 0)"/>
  <path d="M 196.236 433.57 C 198.176 433.67 200.126 433.79 202.066 433.91 C 202.116 435.45 202.176 436.99 202.226 438.54 C 200.296 438.53 198.356 438.52 196.426 438.51 C 196.356 436.86 196.296 435.21 196.236 433.57 Z" fill="#fabf19" opacity="1.00" stroke="#fabf19" stroke-width="0.25" transform="matrix(1, 0, 0, 1, -7.105427357601002e-15, 0)"/>
  <path d="M 246.526 434.04 C 248.026 434.2 249.506 434.54 250.986 434.85 C 250.996 436.03 251.006 437.22 251.016 438.42 C 249.166 438.46 247.316 438.5 245.466 438.55 C 245.726 437.03 245.506 435.31 246.526 434.04 Z" fill="#fcbf19" opacity="1.00" stroke="#fcbf19" stroke-width="0.25" transform="matrix(1, 0, 0, 1, -7.105427357601002e-15, 0)"/>
  <path d="M 275.396 443.62 C 275.946 443.66 277.046 443.74 277.596 443.79 C 279.776 444.45 280.666 446.78 281.936 448.45 C 282.816 448.13 283.706 447.81 284.596 447.5 L 284.126 449.42 C 283.926 449.84 283.516 450.66 283.306 451.07 C 281.016 453.63 277.376 452.98 274.316 453.08 C 263.586 452.91 252.836 453.29 242.116 452.93 C 239.466 451.73 240.596 448.34 241.366 446.28 C 241.626 447.39 241.896 448.51 242.186 449.63 C 242.686 449.99 243.696 450.69 244.206 451.04 C 256.226 450.92 268.246 451.03 280.266 450.95 C 281.056 447.57 277.276 445.77 275.396 443.62 Z" fill="#0b000c" opacity="1.00" stroke="#0b000c" stroke-width="0.25" transform="matrix(1, 0, 0, 1, -7.105427357601002e-15, 0)"/>
  <path d="M 125.436 447.43 C 140.136 447.36 154.836 447.36 169.536 447.45 C 175.106 447.73 180.716 447.24 186.266 447.79 C 186.626 448.08 187.336 448.67 187.696 448.97 C 171.916 449.52 156.116 449 140.326 449.18 C 135.506 449.33 130.626 448.78 125.866 449.66 C 125.756 449.1 125.546 447.99 125.436 447.43 Z" fill="#180806" opacity="1.00" stroke="#180806" stroke-width="0.25" transform="matrix(1, 0, 0, 1, -7.105427357601002e-15, 0)"/>
  <path d="M 191.366 447.09 C 191.896 447.7 192.946 448.92 193.476 449.53 C 193.466 449.89 193.446 450.6 193.446 450.96 C 203.096 450.75 212.826 451.54 222.436 450.43 C 222.596 450.17 222.916 449.65 223.066 449.39 L 224.036 447.71 C 227.776 447.57 231.516 447.56 235.256 447.73 C 234.936 448.12 234.276 448.92 233.956 449.31 C 231.096 449.24 228.246 449.26 225.386 449.31 L 224.886 450.74 C 224.556 452.85 221.946 452.94 220.276 452.98 C 211.956 453.03 203.626 452.95 195.306 453.02 C 193.426 453.23 191.406 452.48 190.846 450.51 C 190.976 449.65 191.236 447.95 191.366 447.09 Z" fill="#040006" opacity="1.00" stroke="#040006" stroke-width="0.25" transform="matrix(1, 0, 0, 1, -7.105427357601002e-15, 0)"/>
  <path d="M 284.596 447.5 C 304.106 447.29 323.616 447.48 343.136 447.45 L 342.986 449.17 C 323.366 449.08 303.746 449.07 284.126 449.42 L 284.596 447.5 Z" fill="#110201" opacity="1.00" stroke="#110201" stroke-width="0.25" transform="matrix(1, 0, 0, 1, -7.105427357601002e-15, 0)"/>
  <path d="M 193.476 449.53 C 203.336 449.3 213.206 449.63 223.066 449.39 C 222.916 449.65 222.596 450.17 222.436 450.43 C 212.826 451.54 203.096 450.75 193.446 450.96 C 193.446 450.6 193.466 449.89 193.476 449.53 Z" fill="#f7f6ff" opacity="1.00" stroke="#f7f6ff" stroke-width="0.25" transform="matrix(1, 0, 0, 1, -7.105427357601002e-15, 0)"/>
  <path d="M 242.186 449.63 C 254.656 449.27 267.146 449.62 279.616 449.3 L 280.266 450.95 C 268.246 451.03 256.226 450.92 244.206 451.04 C 243.696 450.69 242.686 449.99 242.186 449.63 Z" fill="#dcdff3" opacity="1.00" stroke="#dcdff3" stroke-width="0.25" transform="matrix(1, 0, 0, 1, -7.105427357601002e-15, 0)"/>
  <path d="M 151.113 140.425 C 153.859 144.07 159.682 146.233 164.999 145.113 C 169.69 144.143 173.112 140.927 174.409 137.364 C 174.562 137.716 180.616 137.304 182.901 135.686 C 183.433 135.038 183.856 134.342 184.252 133.634 C 184.653 133.582 181.835 132.921 179.243 132.848 C 165.757 132.9 142.582 133.505 144.378 133.501 C 144.395 133.75 144.438 134.252 144.455 134.501 C 145.763 135.536 147.378 136.304 149.317 136.201 C 149.745 137.648 150.239 139.094 151.113 140.425 Z" opacity="1.00" stroke="#0e050a" style="stroke-width: 2px; fill: rgb(205, 205, 205); fill-opacity: 0.4; transform-origin: 164.285px 139.129px;" transform="matrix(-1, 0, 0, -1, 0.00000979215, -0.000022224844)"/>
  <path d="M 312.525 116.501 C 314.407 122.221 318.865 127.371 324.823 128.641 C 331.124 130.031 337.964 125.741 339.719 119.441 C 342.511 119.151 345.706 119.451 348.048 117.541 C 350.175 115.941 350.861 113.211 351.664 110.781 C 332.761 110.831 299.848 110.676 303.327 110.756 C 303.474 111.416 305.773 114.261 305.92 114.911 C 307.949 116.081 310.173 116.731 312.525 116.501 Z" opacity="1.00" stroke="#0e050a" style="stroke-width: 2px; fill: rgb(255, 255, 255); fill-opacity: 0.4; transform-origin: 327.368px 119.818px;" transform="matrix(-1, 0, 0, -1, -0.000041522504, 0.000007141709)"/>
</svg>